<?xml version="1.0" encoding="UTF-8"?>
<svg id="_Слой_1" data-name="Слой_1" xmlns="http://www.w3.org/2000/svg" version="1.1" viewBox="0 0 595.27559 595.27559">
  <defs>
    <style>
      .st0 {
        fill: #ffffff;
      }
    </style>
  </defs>
  <circle cx="297.63779" cy="297.63779" r="250" fill="#000000"/>
  <g transform="translate(0, -20) translate(297.63779, 297.63779) scale(0.65) translate(-297.63779, -297.63779)">
    <path class="st0" d="M568.35063,466.25077v-20.23648h-44.0845v-202.7729l-211.36254-179.23218L92.41389,243.11095v202.90333H26.92496v20.23648h65.48893v65.01562h203.09799v-20.23648h-11.76641v-146.33703h54.23733v166.57351h173.86971v-20.23648h-104.85323v-219.52234l-94.06308-80.08331-99.91861,80.66431v218.94134h-100.36722V252.74502l199.97458-162.43827,191.4047,162.30784v193.3997h-50.36295v-174.62957l-140.79176-117.91209-145.60188,117.80735v174.73431h-14.40367v20.23648h34.64015v-185.31301l125.14406-101.25454,120.77662,101.1498v185.41775h134.92041ZM233.25407,301.76019l79.33827-64.05024,74.17046,63.14513v210.17483h-28.54352v-166.57351h-94.71029v166.57351h-30.25492v-209.26972Z"/>
  </g>
</svg>